<svg width="20" height="20" viewBox="0 0 20 20" fill="none" xmlns="http://www.w3.org/2000/svg">
<path d="M14.167 2.50001H17.5003C17.7213 2.50001 17.9333 2.58781 18.0896 2.74409C18.2459 2.90037 18.3337 3.11233 18.3337 3.33334V16.6667C18.3337 16.8877 18.2459 17.0997 18.0896 17.2559C17.9333 17.4122 17.7213 17.5 17.5003 17.5H2.50033C2.27931 17.5 2.06735 17.4122 1.91107 17.2559C1.75479 17.0997 1.66699 16.8877 1.66699 16.6667V3.33334C1.66699 3.11233 1.75479 2.90037 1.91107 2.74409C2.06735 2.58781 2.27931 2.50001 2.50033 2.50001H5.83366V0.833344H7.50033V2.50001H12.5003V0.833344H14.167V2.50001ZM16.667 7.50001V4.16668H14.167V5.83334H12.5003V4.16668H7.50033V5.83334H5.83366V4.16668H3.33366V7.50001H16.667ZM16.667 9.16668H3.33366V15.8333H16.667V9.16668ZM5.00033 10.8333H9.16699V14.1667H5.00033V10.8333Z" fill="#73BA9B"/>
</svg>
