<svg width="16" height="16" viewBox="0 0 16 16" fill="none" xmlns="http://www.w3.org/2000/svg">
<path d="M12.5357 0.0570933C13.3326 0.0570933 14.0123 0.341691 14.5748 0.910888C15.144 1.47339 15.4286 2.15308 15.4286 2.94995V12.5928C15.4286 13.3897 15.144 14.0694 14.5748 14.6319C14.0123 15.2011 13.3326 15.4857 12.5357 15.4857H10.6473V9.5091H12.6462L12.9475 7.17875H10.6473V5.69214C10.6473 5.31714 10.7243 5.03589 10.8783 4.84839C11.0391 4.66089 11.3471 4.56714 11.8025 4.56714L13.0279 4.55709V2.47785C12.606 2.41758 12.01 2.38745 11.24 2.38745C10.3292 2.38745 9.59933 2.65531 9.05022 3.19102C8.50781 3.72674 8.23661 4.48343 8.23661 5.46111V7.17875H6.22768V9.5091H8.23661V15.4857H2.89286C2.09598 15.4857 1.41295 15.2011 0.84375 14.6319C0.28125 14.0694 0 13.3897 0 12.5928V2.94995C0 2.15308 0.28125 1.47339 0.84375 0.910888C1.41295 0.341691 2.09598 0.0570933 2.89286 0.0570933H12.5357Z" fill="white"/>
</svg>
