<svg width="17" height="14" viewBox="0 0 17 14" fill="none" xmlns="http://www.w3.org/2000/svg">
<path d="M16.2723 1.86959C15.8237 2.52584 15.2813 3.085 14.6451 3.54705C14.6518 3.6408 14.6551 3.78142 14.6551 3.96892C14.6551 4.83946 14.5279 5.71 14.2734 6.58053C14.019 7.44437 13.6306 8.27473 13.1083 9.0716C12.5926 9.86848 11.9766 10.575 11.26 11.191C10.5435 11.8004 9.67969 12.2892 8.66853 12.6575C7.65737 13.0191 6.57589 13.2 5.42411 13.2C3.60938 13.2 1.94866 12.7145 0.441964 11.7435C0.676339 11.7703 0.9375 11.7837 1.22545 11.7837C2.73214 11.7837 4.07478 11.3216 5.25335 10.3975C4.55022 10.3841 3.92076 10.1698 3.36496 9.75464C2.80915 9.33276 2.42746 8.79705 2.21987 8.1475C2.44085 8.18098 2.64509 8.19772 2.83259 8.19772C3.12054 8.19772 3.40513 8.16089 3.68638 8.08723C2.93638 7.93321 2.31362 7.56156 1.81808 6.97227C1.32924 6.37629 1.08482 5.68656 1.08482 4.90308V4.8629C1.54018 5.11736 2.02902 5.25464 2.55134 5.27473C2.10938 4.98008 1.75781 4.59504 1.49665 4.11959C1.23549 3.64415 1.10491 3.12852 1.10491 2.57272C1.10491 1.98343 1.25223 1.43767 1.54688 0.935442C2.35714 1.93321 3.34152 2.73343 4.5 3.33611C5.66518 3.93209 6.91071 4.26357 8.23661 4.33053C8.18304 4.07607 8.15625 3.8283 8.15625 3.58723C8.15625 2.68991 8.47098 1.92651 9.10045 1.29705C9.73661 0.660888 10.5033 0.342808 11.4007 0.342808C12.3382 0.342808 13.1283 0.684326 13.7712 1.36736C14.5011 1.22674 15.1875 0.965576 15.8304 0.58388C15.5826 1.35397 15.1071 1.94995 14.404 2.37183C15.0268 2.30486 15.6496 2.13745 16.2723 1.86959Z" fill="white"/>
</svg>
