<svg width="20" height="20" viewBox="0 0 20 20" fill="none" xmlns="http://www.w3.org/2000/svg">
<path d="M16.6663 16.6667C16.6663 16.8877 16.5785 17.0996 16.4223 17.2559C16.266 17.4122 16.054 17.5 15.833 17.5H4.16634C3.94533 17.5 3.73337 17.4122 3.57709 17.2559C3.4208 17.0996 3.33301 16.8877 3.33301 16.6667V9.16667H0.833008L9.43884 1.34334C9.59227 1.20374 9.79224 1.12637 9.99967 1.12637C10.2071 1.12637 10.4071 1.20374 10.5605 1.34334L19.1663 9.16667H16.6663V16.6667ZM14.9997 15.8333V7.63084L9.99967 3.08584L4.99967 7.63084V15.8333H14.9997ZM9.99967 14.1667L7.20051 11.3675C7.0264 11.1934 6.88828 10.9867 6.79406 10.7592C6.69983 10.5317 6.65133 10.2879 6.65133 10.0417C6.65133 9.79544 6.69983 9.55162 6.79406 9.32413C6.88828 9.09665 7.0264 8.88995 7.20051 8.71584C7.37462 8.54173 7.58132 8.40361 7.8088 8.30939C8.03629 8.21516 8.28011 8.16666 8.52634 8.16666C8.77257 8.16666 9.01639 8.21516 9.24388 8.30939C9.47136 8.40361 9.67806 8.54173 9.85217 8.71584L9.99967 8.86334L10.1472 8.71584C10.3213 8.54173 10.528 8.40361 10.7555 8.30939C10.983 8.21516 11.2268 8.16666 11.473 8.16666C11.7192 8.16666 11.9631 8.21516 12.1905 8.30939C12.418 8.40361 12.6247 8.54173 12.7988 8.71584C12.973 8.88995 13.1111 9.09665 13.2053 9.32413C13.2995 9.55162 13.348 9.79544 13.348 10.0417C13.348 10.2879 13.2995 10.5317 13.2053 10.7592C13.1111 10.9867 12.973 11.1934 12.7988 11.3675L9.99967 14.1667Z" fill="#73BA9B"/>
</svg>
