<svg width="20" height="20" viewBox="0 0 20 20" fill="none" xmlns="http://www.w3.org/2000/svg">
<path d="M10 17.4167L14.125 13.2917C14.9408 12.4758 15.4963 11.4364 15.7213 10.3049C15.9463 9.17336 15.8308 8.0005 15.3892 6.93463C14.9477 5.86876 14.2 4.95776 13.2408 4.31681C12.2815 3.67586 11.1537 3.33376 10 3.33376C8.8463 3.33376 7.71851 3.67586 6.75924 4.31681C5.79997 4.95776 5.05229 5.86876 4.61076 6.93463C4.16923 8.0005 4.05368 9.17336 4.27871 10.3049C4.50374 11.4364 5.05926 12.4758 5.875 13.2917L10 17.4167ZM10 19.7733L4.69667 14.47C3.64779 13.4211 2.93349 12.0847 2.64411 10.6299C2.35473 9.17502 2.50326 7.66703 3.07092 6.29659C3.63858 4.92614 4.59987 3.75481 5.83324 2.9307C7.0666 2.1066 8.51665 1.66673 10 1.66673C11.4834 1.66673 12.9334 2.1066 14.1668 2.9307C15.4001 3.75481 16.3614 4.92614 16.9291 6.29659C17.4968 7.66703 17.6453 9.17502 17.3559 10.6299C17.0665 12.0847 16.3522 13.4211 15.3033 14.47L10 19.7733V19.7733ZM10 10.8333C10.442 10.8333 10.866 10.6577 11.1785 10.3452C11.4911 10.0326 11.6667 9.60869 11.6667 9.16667C11.6667 8.72464 11.4911 8.30072 11.1785 7.98816C10.866 7.6756 10.442 7.5 10 7.5C9.55798 7.5 9.13405 7.6756 8.82149 7.98816C8.50893 8.30072 8.33334 8.72464 8.33334 9.16667C8.33334 9.60869 8.50893 10.0326 8.82149 10.3452C9.13405 10.6577 9.55798 10.8333 10 10.8333ZM10 12.5C9.11595 12.5 8.2681 12.1488 7.64298 11.5237C7.01786 10.8986 6.66667 10.0507 6.66667 9.16667C6.66667 8.28261 7.01786 7.43477 7.64298 6.80964C8.2681 6.18452 9.11595 5.83333 10 5.83333C10.8841 5.83333 11.7319 6.18452 12.357 6.80964C12.9821 7.43477 13.3333 8.28261 13.3333 9.16667C13.3333 10.0507 12.9821 10.8986 12.357 11.5237C11.7319 12.1488 10.8841 12.5 10 12.5Z" fill="#136F63"/>
</svg>
