<svg width="12" height="16" viewBox="0 0 12 16" fill="none" xmlns="http://www.w3.org/2000/svg">
<path fill-rule="evenodd" clip-rule="evenodd" d="M0 5.55271C0 2.48604 2.52044 0 5.62954 0C8.73864 0 11.2591 2.48604 11.2593 5.55271C11.2593 7.22815 10.2174 8.78547 8.92333 10.7199C8.00556 12.0918 6.96089 13.6534 6.07094 15.5813C5.81338 16.1396 5.44606 16.1396 5.18832 15.5813C4.29831 13.6534 3.25366 12.0918 2.33591 10.7199C1.04178 8.78545 0 7.22817 0 5.55271ZM2.477 5.55271C2.477 7.27004 3.88844 8.6624 5.62954 8.6624C7.37081 8.6624 8.78207 7.27004 8.78207 5.55271C8.78207 3.83538 7.37081 2.4432 5.62954 2.4432C3.88844 2.4432 2.477 3.83538 2.477 5.55271Z" fill="#333333"/>
</svg>
