<svg width="16" height="10" viewBox="0 0 16 10" fill="none" xmlns="http://www.w3.org/2000/svg">
<path fill-rule="evenodd" clip-rule="evenodd" d="M0.555556 0.0222635C0.609995 0.0094397 0.667102 0 0.725624 0H14.5125C14.571 0 14.6281 0.0094397 14.6825 0.0222635L7.94785 5.94435C7.79342 6.08007 7.44468 6.08007 7.29025 5.94435L0.555556 0.0222635ZM0 0.712439C0 0.646842 0.0116463 0.583436 0.0283356 0.5232L4.87528 4.78109L0.0283356 9.08905C0.012517 9.03038 0 8.96908 0 8.90539V0.712439ZM15.2098 0.5232L10.3628 4.78109L15.2098 9.08905C15.2255 9.03038 15.2381 8.96908 15.2381 8.90539V0.712439C15.2381 0.646842 15.2265 0.583436 15.2098 0.5232ZM0.549878 9.59L5.4195 5.25974L6.80272 6.47311C7.26413 6.87861 7.97397 6.87861 8.43537 6.47311L9.81859 5.25974L14.6882 9.59C14.6317 9.60375 14.5735 9.61782 14.5125 9.61782H0.725624C0.664623 9.61782 0.606486 9.60372 0.549945 9.59001L0.549878 9.59Z" fill="#333333"/>
</svg>
