<svg width="15" height="16" viewBox="0 0 15 16" fill="none" xmlns="http://www.w3.org/2000/svg">
<path fill-rule="evenodd" clip-rule="evenodd" d="M3.00177 0.00476799C2.35115 -0.0452797 1.65049 0.305054 1.20006 0.755484C0.399294 1.60629 -0.0511355 2.90754 0.0489599 3.65825C0.649532 7.96235 6.35497 14.0682 10.609 14.969C11.3097 15.1192 12.661 14.7688 13.5618 14.0181C14.0623 13.5677 14.4127 12.9171 14.4627 12.2665C14.4627 11.4657 11.3097 9.26359 10.3588 9.56388C9.90836 9.71402 9.70817 10.3646 9.50798 10.765C9.10759 11.4156 8.60712 11.2655 8.10664 10.8151C6.75535 9.71402 5.00368 7.86226 4.00273 6.41087C3.60235 5.9104 3.4522 5.35987 4.15287 5.05959C4.55325 4.8594 5.20387 4.70925 5.40406 4.25882C5.80445 3.35796 3.80254 0.00476799 3.00177 0.00476799Z" fill="#333333"/>
</svg>
