<svg width="20" height="20" viewBox="0 0 20 20" fill="none" xmlns="http://www.w3.org/2000/svg">
<path d="M5.83366 7.49999C6.38619 7.49999 6.9161 7.2805 7.3068 6.8898C7.6975 6.49909 7.91699 5.96919 7.91699 5.41666C7.91699 4.86412 7.6975 4.33422 7.3068 3.94352C6.9161 3.55282 6.38619 3.33332 5.83366 3.33332C5.28112 3.33332 4.75122 3.55282 4.36052 3.94352C3.96982 4.33422 3.75033 4.86412 3.75033 5.41666C3.75033 5.96919 3.96982 6.49909 4.36052 6.8898C4.75122 7.2805 5.28112 7.49999 5.83366 7.49999ZM5.83366 9.16666C5.3412 9.16666 4.85357 9.06966 4.3986 8.88121C3.94363 8.69275 3.53023 8.41653 3.18201 8.06831C2.83379 7.72009 2.55757 7.30669 2.36911 6.85172C2.18066 6.39675 2.08366 5.90911 2.08366 5.41666C2.08366 4.9242 2.18066 4.43656 2.36911 3.98159C2.55757 3.52662 2.83379 3.11323 3.18201 2.76501C3.53023 2.41679 3.94363 2.14056 4.3986 1.95211C4.85357 1.76365 5.3412 1.66666 5.83366 1.66666C6.82822 1.66666 7.78205 2.06174 8.48531 2.76501C9.18857 3.46827 9.58366 4.42209 9.58366 5.41666C9.58366 6.41122 9.18857 7.36505 8.48531 8.06831C7.78205 8.77157 6.82822 9.16666 5.83366 9.16666ZM14.5837 10.8333C15.0257 10.8333 15.4496 10.6577 15.7622 10.3452C16.0747 10.0326 16.2503 9.60868 16.2503 9.16666C16.2503 8.72463 16.0747 8.30071 15.7622 7.98815C15.4496 7.67558 15.0257 7.49999 14.5837 7.49999C14.1416 7.49999 13.7177 7.67558 13.4051 7.98815C13.0926 8.30071 12.917 8.72463 12.917 9.16666C12.917 9.60868 13.0926 10.0326 13.4051 10.3452C13.7177 10.6577 14.1416 10.8333 14.5837 10.8333ZM14.5837 12.5C13.6996 12.5 12.8518 12.1488 12.2266 11.5237C11.6015 10.8986 11.2503 10.0507 11.2503 9.16666C11.2503 8.2826 11.6015 7.43475 12.2266 6.80963C12.8518 6.18451 13.6996 5.83332 14.5837 5.83332C15.4677 5.83332 16.3156 6.18451 16.9407 6.80963C17.5658 7.43475 17.917 8.2826 17.917 9.16666C17.917 10.0507 17.5658 10.8986 16.9407 11.5237C16.3156 12.1488 15.4677 12.5 14.5837 12.5ZM16.667 17.5V17.0833C16.667 16.5308 16.4475 16.0009 16.0568 15.6102C15.6661 15.2195 15.1362 15 14.5837 15C14.0311 15 13.5012 15.2195 13.1105 15.6102C12.7198 16.0009 12.5003 16.5308 12.5003 17.0833V17.5H10.8337V17.0833C10.8337 16.5909 10.9307 16.1032 11.1191 15.6483C11.3076 15.1933 11.5838 14.7799 11.932 14.4317C12.2802 14.0835 12.6936 13.8072 13.1486 13.6188C13.6036 13.4303 14.0912 13.3333 14.5837 13.3333C15.0761 13.3333 15.5638 13.4303 16.0187 13.6188C16.4737 13.8072 16.8871 14.0835 17.2353 14.4317C17.5835 14.7799 17.8598 15.1933 18.0482 15.6483C18.2367 16.1032 18.3337 16.5909 18.3337 17.0833V17.5H16.667ZM8.33366 17.5V14.1667C8.33366 13.5036 8.07027 12.8677 7.60143 12.3989C7.13259 11.93 6.4967 11.6667 5.83366 11.6667C5.17062 11.6667 4.53473 11.93 4.06589 12.3989C3.59705 12.8677 3.33366 13.5036 3.33366 14.1667V17.5H1.66699V14.1667C1.66699 13.0616 2.10598 12.0018 2.88738 11.2204C3.66878 10.439 4.72859 9.99999 5.83366 9.99999C6.93873 9.99999 7.99854 10.439 8.77994 11.2204C9.56134 12.0018 10.0003 13.0616 10.0003 14.1667V17.5H8.33366Z" fill="#73BA9B"/>
</svg>
