<svg width="20" height="20" viewBox="0 0 20 20" fill="none" xmlns="http://www.w3.org/2000/svg">
<path d="M16.6663 18.3333H14.9997V16.6667C14.9997 16.0036 14.7363 15.3678 14.2674 14.8989C13.7986 14.4301 13.1627 14.1667 12.4997 14.1667H7.49967C6.83663 14.1667 6.20075 14.4301 5.73191 14.8989C5.26307 15.3678 4.99967 16.0036 4.99967 16.6667V18.3333H3.33301V16.6667C3.33301 15.5616 3.77199 14.5018 4.5534 13.7204C5.3348 12.939 6.39461 12.5 7.49967 12.5H12.4997C13.6047 12.5 14.6645 12.939 15.446 13.7204C16.2274 14.5018 16.6663 15.5616 16.6663 16.6667V18.3333ZM9.99967 10.8333C9.34306 10.8333 8.69288 10.704 8.08626 10.4527C7.47963 10.2015 6.92843 9.83317 6.46414 9.36888C5.99985 8.90458 5.63155 8.35339 5.38028 7.74676C5.129 7.14013 4.99967 6.48995 4.99967 5.83334C4.99967 5.17673 5.129 4.52655 5.38028 3.91993C5.63155 3.3133 5.99985 2.7621 6.46414 2.29781C6.92843 1.83352 7.47963 1.46522 8.08626 1.21395C8.69288 0.962672 9.34306 0.833343 9.99967 0.833344C11.3258 0.833344 12.5975 1.36013 13.5352 2.29781C14.4729 3.23549 14.9997 4.50726 14.9997 5.83334C14.9997 7.15943 14.4729 8.4312 13.5352 9.36888C12.5975 10.3066 11.3258 10.8333 9.99967 10.8333ZM9.99967 9.16668C10.8837 9.16668 11.7316 8.81549 12.3567 8.19037C12.9818 7.56524 13.333 6.7174 13.333 5.83334C13.333 4.94929 12.9818 4.10144 12.3567 3.47632C11.7316 2.8512 10.8837 2.50001 9.99967 2.50001C9.11562 2.50001 8.26777 2.8512 7.64265 3.47632C7.01753 4.10144 6.66634 4.94929 6.66634 5.83334C6.66634 6.7174 7.01753 7.56524 7.64265 8.19037C8.26777 8.81549 9.11562 9.16668 9.99967 9.16668Z" fill="#73BA9B"/>
</svg>
